<svg width="116" height="85" viewBox="0 0 116 85" fill="none" xmlns="http://www.w3.org/2000/svg">
<path d="M36.4663 37.0486H28.0023C27.2572 37.0486 26.6531 37.6544 26.6531 38.4017V38.8076C26.6531 39.5549 27.2572 40.1607 28.0023 40.1607H36.4663C37.2115 40.1607 37.8156 39.5549 37.8156 38.8076V38.4017C37.8156 37.6544 37.2115 37.0486 36.4663 37.0486Z" fill="#00A651"/>
<path d="M36.4663 32.625H28.0023C27.2572 32.625 26.6531 33.2308 26.6531 33.9781V34.384C26.6531 35.1313 27.2572 35.7371 28.0023 35.7371H36.4663C37.2115 35.7371 37.8156 35.1313 37.8156 34.384V33.9781C37.8156 33.2308 37.2115 32.625 36.4663 32.625Z" fill="#72BF44"/>
<path d="M36.4663 28.2015H28.0023C27.2572 28.2015 26.6531 28.8073 26.6531 29.5546V29.9605C26.6531 30.7078 27.2572 31.3136 28.0023 31.3136H36.4663C37.2115 31.3136 37.8156 30.7078 37.8156 29.9605V29.5546C37.8156 28.8073 37.2115 28.2015 36.4663 28.2015Z" fill="#D7DF23"/>
<path d="M36.4663 23.7779H28.0023C27.2572 23.7779 26.6531 24.3837 26.6531 25.131V25.5369C26.6531 26.2842 27.2572 26.89 28.0023 26.89H36.4663C37.2115 26.89 37.8156 26.2842 37.8156 25.5369V25.131C37.8156 24.3837 37.2115 23.7779 36.4663 23.7779Z" fill="#FFF200"/>
<path d="M36.4663 19.3492H28.0023C27.2572 19.3492 26.6531 19.9549 26.6531 20.7022V21.1082C26.6531 21.8555 27.2572 22.4613 28.0023 22.4613H36.4663C37.2115 22.4613 37.8156 21.8555 37.8156 21.1082V20.7022C37.8156 19.9549 37.2115 19.3492 36.4663 19.3492Z" fill="#FDB913"/>
<path d="M36.4663 14.9256H28.0023C27.2572 14.9256 26.6531 15.5314 26.6531 16.2787V16.6846C26.6531 17.4319 27.2572 18.0377 28.0023 18.0377H36.4663C37.2115 18.0377 37.8156 17.4319 37.8156 16.6846V16.2787C37.8156 15.5314 37.2115 14.9256 36.4663 14.9256Z" fill="#F37021"/>
<path d="M36.4663 10.502H28.0023C27.2572 10.502 26.6531 11.1078 26.6531 11.8551V12.2611C26.6531 13.0083 27.2572 13.6141 28.0023 13.6141H36.4663C37.2115 13.6141 37.8156 13.0083 37.8156 12.2611V11.8551C37.8156 11.1078 37.2115 10.502 36.4663 10.502Z" fill="#ED1C24"/>
<path d="M36.4663 6.07327H28.0023C27.2572 6.07327 26.6531 6.67907 26.6531 7.42636V7.83229C26.6531 8.57958 27.2572 9.18538 28.0023 9.18538H36.4663C37.2115 9.18538 37.8156 8.57958 37.8156 7.83229V7.42636C37.8156 6.67907 37.2115 6.07327 36.4663 6.07327Z" fill="#CE181E"/>
<path d="M49.44 37.0486H40.976C40.2308 37.0486 39.6267 37.6544 39.6267 38.4017V38.8076C39.6267 39.5549 40.2308 40.1607 40.976 40.1607H49.44C50.1852 40.1607 50.7892 39.5549 50.7892 38.8076V38.4017C50.7892 37.6544 50.1852 37.0486 49.44 37.0486Z" fill="#00A651"/>
<path d="M49.44 32.625H40.976C40.2308 32.625 39.6267 33.2308 39.6267 33.9781V34.384C39.6267 35.1313 40.2308 35.7371 40.976 35.7371H49.44C50.1852 35.7371 50.7892 35.1313 50.7892 34.384V33.9781C50.7892 33.2308 50.1852 32.625 49.44 32.625Z" fill="#72BF44"/>
<path d="M49.44 28.2015H40.976C40.2308 28.2015 39.6267 28.8073 39.6267 29.5546V29.9605C39.6267 30.7078 40.2308 31.3136 40.976 31.3136H49.44C50.1852 31.3136 50.7892 30.7078 50.7892 29.9605V29.5546C50.7892 28.8073 50.1852 28.2015 49.44 28.2015Z" fill="#D7DF23"/>
<path d="M49.44 23.7779H40.976C40.2308 23.7779 39.6267 24.3837 39.6267 25.131V25.5369C39.6267 26.2842 40.2308 26.89 40.976 26.89H49.44C50.1852 26.89 50.7892 26.2842 50.7892 25.5369V25.131C50.7892 24.3837 50.1852 23.7779 49.44 23.7779Z" fill="#FFF200"/>
<path d="M49.44 19.3492H40.976C40.2308 19.3492 39.6267 19.9549 39.6267 20.7022V21.1082C39.6267 21.8555 40.2308 22.4613 40.976 22.4613H49.44C50.1852 22.4613 50.7892 21.8555 50.7892 21.1082V20.7022C50.7892 19.9549 50.1852 19.3492 49.44 19.3492Z" fill="#FDB913"/>
<path d="M49.44 14.9256H40.976C40.2308 14.9256 39.6267 15.5314 39.6267 16.2787V16.6846C39.6267 17.4319 40.2308 18.0377 40.976 18.0377H49.44C50.1852 18.0377 50.7892 17.4319 50.7892 16.6846V16.2787C50.7892 15.5314 50.1852 14.9256 49.44 14.9256Z" fill="#F37021"/>
<path d="M62.5745 37.0486H54.1105C53.3653 37.0486 52.7612 37.6544 52.7612 38.4017V38.8076C52.7612 39.5549 53.3653 40.1607 54.1105 40.1607H62.5745C63.3197 40.1607 63.9238 39.5549 63.9238 38.8076V38.4017C63.9238 37.6544 63.3197 37.0486 62.5745 37.0486Z" fill="#00A651"/>
<path d="M62.5745 32.625H54.1105C53.3653 32.625 52.7612 33.2308 52.7612 33.9781V34.384C52.7612 35.1313 53.3653 35.7371 54.1105 35.7371H62.5745C63.3197 35.7371 63.9238 35.1313 63.9238 34.384V33.9781C63.9238 33.2308 63.3197 32.625 62.5745 32.625Z" fill="#72BF44"/>
<path d="M62.5745 28.2015H54.1105C53.3653 28.2015 52.7612 28.8073 52.7612 29.5546V29.9605C52.7612 30.7078 53.3653 31.3136 54.1105 31.3136H62.5745C63.3197 31.3136 63.9238 30.7078 63.9238 29.9605V29.5546C63.9238 28.8073 63.3197 28.2015 62.5745 28.2015Z" fill="#D7DF23"/>
<path d="M75.5481 37.0486H67.0841C66.339 37.0486 65.7349 37.6544 65.7349 38.4017V38.8076C65.7349 39.5549 66.339 40.1607 67.0841 40.1607H75.5481C76.2933 40.1607 76.8974 39.5549 76.8974 38.8076V38.4017C76.8974 37.6544 76.2933 37.0486 75.5481 37.0486Z" fill="#00A651"/>
<path d="M75.5481 32.625H67.0841C66.339 32.625 65.7349 33.2308 65.7349 33.9781V34.384C65.7349 35.1313 66.339 35.7371 67.0841 35.7371H75.5481C76.2933 35.7371 76.8974 35.1313 76.8974 34.384V33.9781C76.8974 33.2308 76.2933 32.625 75.5481 32.625Z" fill="#72BF44"/>
<path d="M75.5481 28.2015H67.0841C66.339 28.2015 65.7349 28.8073 65.7349 29.5546V29.9605C65.7349 30.7078 66.339 31.3136 67.0841 31.3136H75.5481C76.2933 31.3136 76.8974 30.7078 76.8974 29.9605V29.5546C76.8974 28.8073 76.2933 28.2015 75.5481 28.2015Z" fill="#D7DF23"/>
<path d="M75.5481 23.7779H67.0841C66.339 23.7779 65.7349 24.3837 65.7349 25.131V25.5369C65.7349 26.2842 66.339 26.89 67.0841 26.89H75.5481C76.2933 26.89 76.8974 26.2842 76.8974 25.5369V25.131C76.8974 24.3837 76.2933 23.7779 75.5481 23.7779Z" fill="#FFF200"/>
<path d="M75.5481 19.3492H67.0841C66.339 19.3492 65.7349 19.9549 65.7349 20.7022V21.1082C65.7349 21.8555 66.339 22.4613 67.0841 22.4613H75.5481C76.2933 22.4613 76.8974 21.8555 76.8974 21.1082V20.7022C76.8974 19.9549 76.2933 19.3492 75.5481 19.3492Z" fill="#FDB913"/>
<path d="M75.5481 14.9256H67.0841C66.339 14.9256 65.7349 15.5314 65.7349 16.2787V16.6846C65.7349 17.4319 66.339 18.0377 67.0841 18.0377H75.5481C76.2933 18.0377 76.8974 17.4319 76.8974 16.6846V16.2787C76.8974 15.5314 76.2933 14.9256 75.5481 14.9256Z" fill="#F37021"/>
<path d="M75.5481 10.502H67.0841C66.339 10.502 65.7349 11.1078 65.7349 11.8551V12.2611C65.7349 13.0083 66.339 13.6141 67.0841 13.6141H75.5481C76.2933 13.6141 76.8974 13.0083 76.8974 12.2611V11.8551C76.8974 11.1078 76.2933 10.502 75.5481 10.502Z" fill="#ED1C24"/>
<path d="M88.5218 37.0486H80.0578C79.3126 37.0486 78.7085 37.6544 78.7085 38.4017V38.8076C78.7085 39.5549 79.3126 40.1607 80.0578 40.1607H88.5218C89.2669 40.1607 89.871 39.5549 89.871 38.8076V38.4017C89.871 37.6544 89.2669 37.0486 88.5218 37.0486Z" fill="#00A651"/>
<path d="M88.5218 32.625H80.0578C79.3126 32.625 78.7085 33.2308 78.7085 33.9781V34.384C78.7085 35.1313 79.3126 35.7371 80.0578 35.7371H88.5218C89.2669 35.7371 89.871 35.1313 89.871 34.384V33.9781C89.871 33.2308 89.2669 32.625 88.5218 32.625Z" fill="#72BF44"/>
<path d="M88.5218 28.2015H80.0578C79.3126 28.2015 78.7085 28.8073 78.7085 29.5546V29.9605C78.7085 30.7078 79.3126 31.3136 80.0578 31.3136H88.5218C89.2669 31.3136 89.871 30.7078 89.871 29.9605V29.5546C89.871 28.8073 89.2669 28.2015 88.5218 28.2015Z" fill="#D7DF23"/>
<path d="M88.5218 23.7779H80.0578C79.3126 23.7779 78.7085 24.3837 78.7085 25.131V25.5369C78.7085 26.2842 79.3126 26.89 80.0578 26.89H88.5218C89.2669 26.89 89.871 26.2842 89.871 25.5369V25.131C89.871 24.3837 89.2669 23.7779 88.5218 23.7779Z" fill="#FFF200"/>
<path d="M88.5218 19.3492H80.0578C79.3126 19.3492 78.7085 19.9549 78.7085 20.7022V21.1082C78.7085 21.8555 79.3126 22.4613 80.0578 22.4613H88.5218C89.2669 22.4613 89.871 21.8555 89.871 21.1082V20.7022C89.871 19.9549 89.2669 19.3492 88.5218 19.3492Z" fill="#FDB913"/>
<path d="M11.5102 70.0746C11.3337 70.3817 11.0535 70.5326 10.6799 70.5326H9.39807C8.9362 70.5326 8.78052 70.3765 8.60408 70.0694L5.76025 65.089H7.70111L9.66792 68.7111C9.74057 68.8412 9.82879 68.9037 9.94815 68.9037H10.1609C10.2751 68.9037 10.3633 68.8412 10.4308 68.7111L12.4235 65.089H14.3436L11.505 70.0798L11.5102 70.0746Z" fill="white"/>
<path d="M16.7619 70.5271H15.1013V65.0836H16.7619V70.5271Z" fill="white"/>
<path d="M25.9317 67.0976C25.9317 68.0187 25.4542 68.4767 24.515 68.4767H24.1361L26.1652 70.5271H24.0012L22.107 68.5443H19.5123V70.5271H17.8517V65.0836H24.3645C25.4075 65.0836 25.9317 65.5259 25.9317 66.4106V67.0976ZM19.5123 66.4939V67.2173H24.0531C24.2295 67.2173 24.3178 67.1444 24.3178 66.9987V66.7073C24.3178 66.5667 24.214 66.4939 24.0116 66.4939H19.5123Z" fill="white"/>
<path d="M34.4684 66.5563H31.526V70.5323H29.8654V66.5563H26.8658V65.0836H34.4736V66.5563H34.4684Z" fill="white"/>
<path d="M43.5914 69.2105C43.5914 70.09 43.0465 70.5324 41.9567 70.5324H37.1928C36.0978 70.5324 35.5581 70.09 35.5581 69.2001V65.0888H37.2187V68.8618C37.2187 68.9971 37.3225 69.0648 37.5301 69.0648H41.6142C41.8166 69.0648 41.9204 69.0023 41.9204 68.8722V65.0888H43.5914V69.2105Z" fill="white"/>
<path d="M52.7353 70.5271H50.8412L50.3066 69.554H46.4664L45.9371 70.5271H44.0637L46.9024 65.5467C47.084 65.2137 47.25 65.0836 47.7171 65.0836H49.0871C49.4971 65.0836 49.7047 65.198 49.9019 65.5467L52.7405 70.5271H52.7353ZM48.236 66.5615C48.1063 66.5615 48.044 66.6136 47.9714 66.7437L47.193 68.1644H49.5801L48.8017 66.7333C48.7394 66.6188 48.6512 66.5563 48.5422 66.5563H48.236V66.5615Z" fill="white"/>
<path d="M60.7582 70.5271H54.8422C53.7472 70.5271 53.2075 70.0848 53.2075 69.2053V65.0836H54.8785V68.7993C54.8785 68.9711 54.9823 69.0596 55.1847 69.0596H60.7634V70.5271H60.7582Z" fill="white"/>
<path d="M73.052 66.4887H67.4006C67.1879 66.4887 67.0893 66.5563 67.0893 66.6864V66.9467C67.0893 67.0768 67.1931 67.1444 67.4006 67.1444H71.5937C72.6783 67.1444 73.2232 67.5816 73.2232 68.4455V69.2157C73.2232 70.0952 72.6783 70.5375 71.5937 70.5375H65.5999V69.1376H71.2512C71.4536 69.1376 71.5574 69.0752 71.5574 68.9451V68.6536C71.5574 68.5235 71.4536 68.4559 71.2512 68.4559H67.0581C65.9632 68.4559 65.4235 68.0656 65.4235 67.2901V66.421C65.4235 65.5363 65.9684 65.094 67.0581 65.094H73.052V66.4939V66.4887Z" fill="white"/>
<path d="M82.5799 68.7993C82.5799 69.9495 81.9 70.5271 80.5352 70.5271H76.3421C74.9773 70.5271 74.2975 69.9495 74.2975 68.7993V66.8166C74.2975 65.6612 74.9773 65.0836 76.3421 65.0836H80.5352C81.9 65.0836 82.5799 65.6612 82.5799 66.8166V68.7993ZM76.6794 66.5563C76.202 66.5563 75.9685 66.7125 75.9685 67.0247V68.5964C75.9685 68.9034 76.2072 69.0596 76.6794 69.0596H80.1927C80.6701 69.0596 80.9037 68.9034 80.9037 68.5964V67.0247C80.9037 66.7125 80.665 66.5563 80.1927 66.5563H76.6794Z" fill="white"/>
<path d="M91.703 69.2105C91.703 70.09 91.1581 70.5324 90.0683 70.5324H85.3044C84.2094 70.5324 83.6697 70.09 83.6697 69.2001V65.0888H85.3303V68.8618C85.3303 68.9971 85.4341 69.0648 85.6417 69.0648H89.7258C89.9282 69.0648 90.032 69.0023 90.032 68.8722V65.0888H91.703V69.2105Z" fill="white"/>
<path d="M100.53 70.5271H98.5945C97.7849 70.5271 97.3646 70.2825 96.9909 69.7257L95.0086 66.7853C94.8788 66.5876 94.7958 66.5563 94.5727 66.5563H94.417V70.5323H92.7875V65.0888H94.6453C95.46 65.0888 95.8648 65.3125 96.2644 65.8902L98.2883 68.8358C98.418 69.0283 98.5115 69.0596 98.7242 69.0596H98.8851V65.0836H100.52V70.5271H100.53Z" fill="white"/>
<path d="M110.006 68.7993C110.006 69.9495 109.326 70.5271 107.961 70.5271H101.615V65.0836H107.961C109.326 65.0836 110.006 65.6612 110.006 66.8166V68.7993ZM103.286 66.5563V69.0596H107.629C108.107 69.0596 108.34 68.9034 108.34 68.5964V67.0247C108.34 66.7125 108.102 66.5563 107.629 66.5563H103.286Z" fill="white"/>
<path d="M33.9287 74.6593H28.2981C28.0957 74.6593 27.9919 74.7477 27.9919 74.9247V75.315H33.8872V76.6212H27.9919V77.0324C27.9919 77.2145 28.0957 77.303 28.2981 77.303H33.9494V78.7029H27.9556C26.8606 78.7029 26.3209 78.2606 26.3209 77.3706V74.5864C26.3209 73.7017 26.8658 73.2593 27.9556 73.2593H33.9287V74.6593Z" fill="white"/>
<path d="M42.7247 78.6977H40.7891C39.9795 78.6977 39.5592 78.4531 39.1855 77.8963L37.2031 74.9559C37.0734 74.7581 36.9904 74.7269 36.7672 74.7269H36.6115V78.7029H34.9821V73.2593H36.8399C37.6546 73.2593 38.0594 73.4831 38.459 74.0608L40.4829 77.0063C40.6126 77.1989 40.706 77.2301 40.9188 77.2301H41.0797V73.2541H42.7143V78.6977H42.7247Z" fill="white"/>
<path d="M51.6455 74.7269H45.7866C45.5738 74.7269 45.4752 74.8154 45.4752 74.9923V76.9595C45.4752 77.1417 45.579 77.2301 45.7866 77.2301H49.8188C50.0212 77.2301 50.125 77.1417 50.125 76.9699V75.4815H51.796V77.3811C51.796 78.2606 51.2511 78.7029 50.1613 78.7029H45.4493C44.3543 78.7029 43.8146 78.2606 43.8146 77.3706V74.5864C43.8146 73.7017 44.3595 73.2593 45.4493 73.2593H51.6455V74.7269Z" fill="white"/>
<path d="M54.5515 78.6977H52.8909V73.2541H54.5515V78.6977Z" fill="white"/>
<path d="M63.3737 78.6977H61.438C60.6284 78.6977 60.2081 78.4531 59.8344 77.8963L57.8521 74.9559C57.7223 74.7581 57.6393 74.7269 57.4162 74.7269H57.2605V78.7029H55.631V73.2593H57.4888C58.3036 73.2593 58.7083 73.4831 59.1079 74.0608L61.1318 77.0063C61.2615 77.1989 61.355 77.2301 61.5677 77.2301H61.7286V73.2541H63.3633V78.6977H63.3737Z" fill="white"/>
<path d="M72.0711 74.6593H66.4406C66.2382 74.6593 66.1344 74.7477 66.1344 74.9247V75.315H72.0296V76.6212H66.1344V77.0324C66.1344 77.2145 66.2382 77.303 66.4406 77.303H72.0919V78.7029H66.0981C65.0031 78.7029 64.4634 78.2606 64.4634 77.3706V74.5864C64.4634 73.7017 65.0083 73.2593 66.0981 73.2593H72.0711V74.6593Z" fill="white"/>
<path d="M80.7428 74.6593H75.1122C74.9098 74.6593 74.806 74.7477 74.806 74.9247V75.315H80.7012V76.6212H74.806V77.0324C74.806 77.2145 74.9098 77.303 75.1122 77.303H80.7635V78.7029H74.7697C73.6747 78.7029 73.135 78.2606 73.135 77.3706V74.5864C73.135 73.7017 73.6799 73.2593 74.7697 73.2593H80.7428V74.6593Z" fill="white"/>
<path d="M89.8866 75.2681C89.8866 76.1893 89.4092 76.6473 88.4699 76.6473H88.0911L90.1202 78.6977H87.9562L86.062 76.7149H83.4673V78.6977H81.8066V73.2541H88.3194C89.3625 73.2541 89.8866 73.6965 89.8866 74.5812V75.2681ZM83.4673 74.6645V75.3878H88.008C88.1845 75.3878 88.2727 75.315 88.2727 75.1693V74.8778C88.2727 74.7373 88.1689 74.6645 87.9665 74.6645H83.4673Z" fill="white"/>
<path d="M41.3651 57.824C40.9137 58.6098 40.2027 58.9897 39.2478 58.9897H35.9629C34.7797 58.9897 34.3801 58.589 33.9286 57.8032L26.6478 45.0529H31.6141L36.6531 54.3216C36.8451 54.6546 37.0683 54.8108 37.3641 54.8108H37.9038C38.1996 54.8108 38.4227 54.6546 38.5992 54.3216L43.7056 45.0529H48.62L41.3599 57.824H41.3651Z" fill="white"/>
<path d="M68.2102 48.6436H53.7368C53.1971 48.6436 52.9376 48.8153 52.9376 49.1484V49.8093C52.9376 50.1424 53.1971 50.3141 53.7368 50.3141H64.4738C67.2553 50.3141 68.6409 51.4278 68.6409 53.6396V55.6068C68.6409 57.855 67.2501 58.9843 64.4738 58.9843H49.1337V55.3934H63.6071C64.1261 55.3934 64.3907 55.2373 64.3907 54.9042V54.1548C64.3907 53.8217 64.1313 53.65 63.6071 53.65H52.8701C50.073 53.65 48.6823 52.656 48.6823 50.6732V48.4458C48.6823 46.182 50.073 45.0475 52.8701 45.0475H68.2102V48.6383V48.6436Z" fill="white"/>
<path d="M89.8192 48.6436H75.3977C74.8787 48.6436 74.6141 48.8725 74.6141 49.3253V50.3193H89.7102V53.6656H74.6141V54.7116C74.6141 55.18 74.8735 55.409 75.3977 55.409H89.8711V58.9999H74.531C71.7339 58.9999 70.3431 57.8654 70.3431 55.5859V48.4614C70.3431 46.1976 71.7339 45.0631 74.531 45.0631H89.8192V48.654V48.6436Z" fill="white"/>
<path d="M26.6531 45.0529L31.2976 53.1871C32.678 52.8592 34.0948 52.5574 35.5478 52.2763L31.6194 45.0529H26.6531Z" fill="#C7C8CA"/>
<path d="M40.1613 51.5007C41.8478 51.2509 43.5707 51.0375 45.33 50.8605L48.6305 45.0527H43.716L40.1613 51.5007Z" fill="#C7C8CA"/>
<path d="M75.3977 48.6436H89.8192V45.0527H74.531C71.7339 45.0527 70.3431 46.1872 70.3431 48.451V50.7773C76.3785 51.3445 82.0298 52.3333 87.1103 53.6604H89.7154V50.3141H74.6192V49.3201C74.6192 48.8673 74.8787 48.6384 75.4029 48.6384L75.3977 48.6436Z" fill="#C7C8CA"/>
<path d="M63.327 50.3141C64.1988 50.3453 65.0654 50.3921 65.9269 50.439C65.491 50.3557 65.0084 50.3141 64.4687 50.3141H63.3218H63.327Z" fill="#C7C8CA"/>
<path d="M48.6824 48.451V50.5639C50.2703 50.4442 51.8895 50.3609 53.5241 50.2985C53.1297 50.2568 52.9377 50.0903 52.9377 49.8041V49.1432C52.9377 48.8101 53.1972 48.6383 53.7369 48.6383H68.2103V45.0475H52.8703C50.0731 45.0475 48.6824 46.182 48.6824 48.4458V48.451Z" fill="#C7C8CA"/>
</svg>
